<svg width="256" height="256" viewBox="0 0 256 256" fill="none" xmlns="http://www.w3.org/2000/svg">
<g clip-path="url(#clip0_2330_372)">
<path d="M38.3213 106.498C38.3213 81.7022 43.5748 61.6013 50.0552 61.6013H189.455C195.935 61.6013 201.189 81.7022 201.189 106.498V214.25H38.3213V106.498Z" fill="#F7F7F7"/>
<path d="M0.685547 30.1131C0.685547 20.6618 8.34502 13 17.7934 13H221.035C230.484 13 238.143 20.6618 238.143 30.1131V71.1845H0.685547V30.1131Z" fill="#BDBDBD"/>
<path d="M238.142 225.887C238.142 235.338 230.482 243 221.034 243L17.1075 243C7.65905 243 -0.000421524 235.338 -0.000421524 225.887V184.815L238.142 184.815V225.887Z" fill="#B1B1B1"/>
<path d="M17.1089 243C7.66044 243 0.000976563 235.338 0.000976563 225.887L0.000976563 30.1131C0.000976563 20.6618 7.66045 13.0001 17.1089 13.0001H58.1678L58.1678 243H17.1089Z" fill="#BDBDBD"/>
<path d="M221.034 13C230.482 13 238.142 20.6618 238.142 30.1131L238.142 225.887C238.142 235.338 230.482 243 221.034 243H179.975L179.975 13L221.034 13Z" fill="#D7D7D7"/>
<path d="M238.142 184.815V225.887C238.142 235.338 230.482 243 221.034 243H179.975V184.815H238.142Z" fill="#EDEDED"/>
<path d="M58.168 243H17.109C7.66057 243 0.00110036 235.338 0.00110036 225.887L0.00110036 184.815H58.168L58.168 243Z" fill="#197C37"/>
<path d="M221.034 13C230.482 13 238.142 20.6618 238.142 30.1131V71.1845L179.975 71.1845V13L221.034 13Z" fill="#878787"/>
<path d="M238.141 184.815H179.975V243H188.871L238.141 184.815Z" fill="#7D7D7D"/>
<path d="M100.594 95.1495C88.276 94.8757 82.2312 103.25 80.7485 107.471L89.3025 111.236C90.6711 101.995 109.832 99.9412 111.201 111.236C112.295 120.272 100.936 122.302 95.1192 122.188V130.402C108.805 128.76 112.341 137.02 112.569 141.355C112.455 143.979 110.858 150.938 102.304 151.623C93.899 152.295 89.5306 145.576 88.276 141.355L79.3799 145.462C83.8279 157.783 96.0607 161.206 102.304 161.206C108.805 161.206 120.781 158.126 122.492 144.435C123.86 133.483 115.535 127.322 111.201 125.611C121.602 120.682 120.781 110.323 119.07 105.76C118.044 102.337 112.911 95.4233 100.594 95.1495Z" fill="#878787"/>
<path d="M149.522 95.8274L131.046 109.176L135.836 116.021L146.443 108.491V159.488H155.681V95.8274H149.522Z" fill="#878787"/>
<mask id="mask0_2330_372" style="mask-type:alpha" maskUnits="userSpaceOnUse" x="0" y="13" width="239" height="230">
<path d="M0.685547 30.1132C0.685547 20.6619 8.34502 13.0001 17.7934 13.0001H221.035C230.484 13.0001 238.143 20.6619 238.143 30.1132V71.1846H0.685547V30.1132Z" fill="#E5E5E5"/>
<path d="M238.143 225.887C238.143 235.338 230.483 243 221.035 243L17.1085 243C7.66002 243 0.000555038 235.338 0.000555038 225.887V184.816L238.143 184.816V225.887Z" fill="#3C3729"/>
<path d="M17.1089 243C7.66044 243 0.000976563 235.338 0.000976563 225.887L0.000976563 30.1133C0.000976563 20.662 7.66045 13.0002 17.1089 13.0002H58.1678L58.1678 243H17.1089Z" fill="#3C3729"/>
<path d="M221.035 13.0001C230.483 13.0001 238.143 20.6619 238.143 30.1132L238.143 225.887C238.143 235.338 230.483 243 221.035 243H179.976L179.976 13.0001L221.035 13.0001Z" fill="#3C3729"/>
<path d="M238.143 184.815V225.887C238.143 235.338 230.483 243 221.035 243H179.976V184.815H238.143Z" fill="#3C3729"/>
<path d="M221.035 13.0001C230.483 13.0001 238.143 20.6619 238.143 30.1132V71.1846L179.976 71.1846V13.0001L221.035 13.0001Z" fill="#3C3729"/>
<path d="M238.142 184.815H179.976V243H188.872L238.142 184.815Z" fill="#3C3729"/>
<path d="M100.594 95.1496C88.276 94.8758 82.2312 103.25 80.7485 107.471L89.3025 111.236C90.6711 101.995 109.832 99.9413 111.201 111.236C112.295 120.272 100.936 122.302 95.1192 122.188V130.403C108.805 128.76 112.341 137.02 112.569 141.355C112.455 143.979 110.858 150.938 102.304 151.623C93.899 152.295 89.5306 145.576 88.276 141.355L79.3799 145.462C83.8279 157.784 96.0607 161.206 102.304 161.206C108.805 161.206 120.781 158.126 122.492 144.435C123.86 133.483 115.535 127.322 111.201 125.611C121.602 120.682 120.781 110.323 119.07 105.76C118.044 102.337 112.911 95.4234 100.594 95.1496Z" fill="#878787"/>
<path d="M149.522 95.8275L131.046 109.176L135.836 116.021L146.443 108.491V159.488H155.681V95.8275H149.522Z" fill="#878787"/>
</mask>
<g mask="url(#mask0_2330_372)">
<path d="M101.47 111.261C85.5386 78.3308 65.5268 39.9057 -17.7598 25.9028L-111.773 112.819L-21.7031 334.54L209.581 383.103L262.826 277.45C255.894 271.942 237.079 244.167 170.833 224.546C104.587 204.926 117.401 144.191 101.47 111.261Z" fill="url(#paint0_linear_2330_372)"/>
</g>
<path fill-rule="evenodd" clip-rule="evenodd" d="M71.0362 215.574C83.5078 211.836 93.2502 205.086 95.9815 189.957C98.7128 174.829 112.832 153.908 126.182 156.155C139.532 158.403 158.921 170.25 162.582 176.053C163.728 185.012 159.533 205.631 133.992 216.261C107.699 225.202 60.5748 222.063 71.0362 215.574Z" fill="#FFCF95"/>
<path d="M182.398 149.656L253.21 38.2032C255.472 34.6442 255.492 30.1039 253.262 26.5253C249.386 20.3044 240.613 19.5674 235.758 25.0596C214.474 49.1405 197.622 68.4749 183.011 85.7055C170.614 100.325 159.83 113.431 149.32 126.636C139.245 139.295 147.62 157.886 163.757 159.045C171.224 159.581 178.383 155.975 182.398 149.656Z" fill="#8D4C20"/>
<path d="M165.984 155.226L146.741 144.113C146.67 144.072 146.634 144.052 146.603 144.034C142.3 141.59 136.856 142.661 133.799 146.554C133.777 146.582 133.745 146.623 133.681 146.706C133.599 146.812 133.558 146.866 133.532 146.9C129.886 151.697 131.277 158.604 136.496 161.614C136.533 161.635 136.579 161.661 136.671 161.713L136.671 161.713L156.025 172.655L156.08 172.686C160.759 175.314 166.68 173.779 169.493 169.208L169.526 169.154L169.561 169.098C172.468 164.313 170.882 158.073 166.042 155.259L165.984 155.226Z" fill="#CEA88F"/>
<mask id="mask1_2330_372" style="mask-type:alpha" maskUnits="userSpaceOnUse" x="69" y="21" width="186" height="201">
<path fill-rule="evenodd" clip-rule="evenodd" d="M71.0362 215.574C83.5078 211.836 93.2502 205.085 95.9815 189.957C98.7128 174.829 112.832 153.907 126.182 156.155C139.532 158.403 158.921 170.25 162.582 176.053C163.728 185.012 159.533 205.631 133.992 216.261C107.699 225.202 60.5748 222.063 71.0362 215.574Z" fill="#FFCF95"/>
<path d="M182.399 149.656L253.211 38.2031C255.473 34.6441 255.493 30.1038 253.263 26.5252C249.387 20.3043 240.614 19.5673 235.759 25.0595C214.475 49.1403 197.623 68.4748 183.012 85.7054C170.615 100.325 159.831 113.431 149.321 126.636C139.246 139.295 147.621 157.886 163.758 159.045C171.225 159.581 178.384 155.975 182.399 149.656Z" fill="#8D4C20"/>
<path d="M165.986 155.226L146.743 144.113C146.672 144.072 146.636 144.052 146.605 144.034C142.302 141.59 136.858 142.661 133.801 146.553C133.779 146.582 133.747 146.623 133.683 146.705C133.601 146.812 133.56 146.866 133.534 146.9C129.887 151.696 131.279 158.604 136.498 161.614C136.535 161.635 136.581 161.661 136.673 161.713L136.673 161.713L156.027 172.655L156.082 172.686C160.761 175.314 166.682 173.779 169.495 169.208L169.528 169.154L169.563 169.097C172.47 164.313 170.884 158.073 166.044 155.259L165.986 155.226Z" fill="#CEA88F"/>
</mask>
<g mask="url(#mask1_2330_372)">
<path d="M143.814 165.991C127.116 170.646 120.661 187.553 119.521 195.425L143.814 215.961L205.402 185.158L267.333 29.0864L251.936 25.3215C232.775 47.5001 180.767 117.846 157.158 150.247C152.778 151.068 146.437 161.085 143.814 165.991Z" fill="url(#paint1_linear_2330_372)"/>
</g>
<mask id="mask2_2330_372" style="mask-type:alpha" maskUnits="userSpaceOnUse" x="69" y="155" width="94" height="67">
<path fill-rule="evenodd" clip-rule="evenodd" d="M71.0587 215.568C83.5302 211.83 93.2726 205.08 96.0039 189.952C98.7352 174.823 112.855 153.902 126.205 156.15C139.554 158.398 158.943 170.244 162.604 176.048C163.75 185.007 159.555 205.625 134.014 216.255C107.722 225.196 60.5973 222.057 71.0587 215.568Z" fill="#FFCF95"/>
</mask>
<g mask="url(#mask2_2330_372)">
<path d="M119.296 195.247C101.087 182.705 87.3709 180.336 59.2841 221L151.557 297.559L235.634 250.041L184.445 167.064C180.52 171.197 171.92 180.944 168.925 186.864C165.181 194.264 137.504 207.789 119.296 195.247Z" fill="url(#paint2_linear_2330_372)"/>
</g>
</g>
<defs>
<linearGradient id="paint0_linear_2330_372" x1="14.8565" y1="67.0617" x2="138.654" y2="233.873" gradientUnits="userSpaceOnUse">
<stop stop-color="#F2D21E"/>
<stop offset="0.4375" stop-color="#E940C7"/>
<stop offset="1" stop-color="#30CFFF"/>
</linearGradient>
<linearGradient id="paint1_linear_2330_372" x1="148.946" y1="182.077" x2="174.96" y2="149.228" gradientUnits="userSpaceOnUse">
<stop stop-color="#E4A75C" stop-opacity="0.33"/>
<stop offset="0.507066" stop-color="#98745D" stop-opacity="0.4"/>
<stop offset="1" stop-color="#793C13" stop-opacity="0.71"/>
</linearGradient>
<linearGradient id="paint2_linear_2330_372" x1="76.432" y1="210.478" x2="140.165" y2="214.75" gradientUnits="userSpaceOnUse">
<stop stop-color="#F2881E"/>
<stop offset="0.485577" stop-color="#F21EC8"/>
<stop offset="1" stop-color="#30B3FF"/>
</linearGradient>
<clipPath id="clip0_2330_372">
<rect width="256" height="256" fill="white"/>
</clipPath>
</defs>
</svg>
